<?xml version="1.0" encoding="UTF-8" standalone="no"?>
<svg
   version="1.1"
   viewBox="0 0 399.99999 399.99999"
   xml:space="preserve"
   id="svg332"
   sodipodi:docname="favicon.svg"
   inkscape:version="1.4 (e7c3feb, 2024-10-09)"
   width="400"
   height="400"
   xmlns:inkscape="http://www.inkscape.org/namespaces/inkscape"
   xmlns:sodipodi="http://sodipodi.sourceforge.net/DTD/sodipodi-0.dtd"
   xmlns="http://www.w3.org/2000/svg"
   xmlns:svg="http://www.w3.org/2000/svg"><defs
     id="defs336" /><sodipodi:namedview
     id="namedview334"
     pagecolor="#ffffff"
     bordercolor="#666666"
     borderopacity="1.0"
     inkscape:showpageshadow="2"
     inkscape:pageopacity="0.0"
     inkscape:pagecheckerboard="0"
     inkscape:deskcolor="#d1d1d1"
     showgrid="false"
     inkscape:zoom="0.56360459"
     inkscape:cx="601.48552"
     inkscape:cy="556.24103"
     inkscape:window-width="1920"
     inkscape:window-height="1016"
     inkscape:window-x="0"
     inkscape:window-y="27"
     inkscape:window-maximized="1"
     inkscape:current-layer="svg332" /><g
     id="Layer_1"
     transform="translate(434.09677,41.402298)" /><g
     id="g1"
     transform="translate(-318.3823,748.83613)"><rect
       id="rect171"
       style="fill:#fff41e;fill-rule:evenodd;stroke-width:1pt"
       height="359.62"
       width="1040.8"
       y="3.1731"
       x="377.60001" /><rect
       id="rect256"
       style="fill:#1f7848;fill-rule:evenodd;stroke-width:1pt"
       height="350.45001"
       width="844.04999"
       y="358.20999"
       x="574.33002" /><rect
       id="rect255"
       style="fill:#e80006;fill-rule:evenodd;stroke-width:1pt"
       height="709.01001"
       width="574.33002"
       y="0"
       x="0" /><path
       id="path349"
       style="fill-rule:evenodd;stroke-width:0.11287"
       inkscape:connector-curvature="0"
       d="m 360.9,450.92 -77.37,-55.222 -76.999,55.742 28.614,-90.6 -76.776,-55.965 94.985,-0.81755 29.506,-90.377 30.101,90.154 95.059,0.14864 -76.404,56.485 29.283,90.451 z" /></g><rect
     id="rect1"
     style="fill:#fff41e;fill-rule:evenodd;stroke-width:1pt"
     height="359.62"
     width="1040.8"
     y="-161.30055"
     x="10.120546" /><rect
     id="rect2"
     style="fill:#1f7848;fill-rule:evenodd;stroke-width:1pt"
     height="350.45001"
     width="844.04999"
     y="193.73634"
     x="206.85052" /><rect
     id="rect3"
     style="fill:#e80006;fill-rule:evenodd;stroke-width:1pt"
     height="709.01001"
     width="574.33002"
     y="-164.47365"
     x="-367.47946" /><path
     id="path3"
     style="fill-rule:evenodd;stroke-width:0.11287"
     inkscape:connector-curvature="0"
     d="m 146.40709,247.25916 -41.54182,-30.00166 -41.342613,30.28416 15.36355,-49.22222 -41.22289,-30.40531 50.99974,-0.44417 15.842483,-49.10106 16.16195,48.97991 51.03947,0.0808 -41.02314,30.68784 15.72274,49.14125 z" /></svg>
