<?xml version="1.0" encoding="UTF-8" standalone="no"?>
<svg
   version="1.1"
   viewBox="0 0 449.148 510.001"
   style="enable-background:new 0 0 449.148 510.001;"
   xml:space="preserve"
   id="svg332"
   sodipodi:docname="favicon.svg"
   inkscape:version="1.4 (e7c3feb, 2024-10-09)"
   xmlns:inkscape="http://www.inkscape.org/namespaces/inkscape"
   xmlns:sodipodi="http://sodipodi.sourceforge.net/DTD/sodipodi-0.dtd"
   xmlns="http://www.w3.org/2000/svg"
   xmlns:svg="http://www.w3.org/2000/svg"><defs
     id="defs336">
	

		
	</defs><sodipodi:namedview
     id="namedview334"
     pagecolor="#ffffff"
     bordercolor="#666666"
     borderopacity="1.0"
     inkscape:showpageshadow="2"
     inkscape:pageopacity="0.0"
     inkscape:pagecheckerboard="0"
     inkscape:deskcolor="#d1d1d1"
     showgrid="false"
     inkscape:zoom="0.56360459"
     inkscape:cx="155.25069"
     inkscape:cy="292.75844"
     inkscape:window-width="1920"
     inkscape:window-height="1043"
     inkscape:window-x="1920"
     inkscape:window-y="0"
     inkscape:window-maximized="1"
     inkscape:current-layer="svg332" /><g
     id="Layer_1" /><g
     id="g4"
     transform="matrix(1.8549157,0,0,1.8549157,-25.111524,76.05305)"
     style="fill:#d32f2f;fill-opacity:1;stroke-width:1.57975">
	
	<path
   d="m 81.083,142.099 c 1.407,-1.407 3.314,-2.197 5.304,-2.197 1.989,0 3.897,0.79 5.304,2.196 l 19.589,19.59 19.589,-19.59 c 2.93,-2.928 7.678,-2.928 10.607,0 l 19.589,19.59 19.589,-19.59 c 1.407,-1.406 3.315,-2.196 5.304,-2.196 1.989,0 3.896,0.79 5.304,2.197 l 19.588,19.589 10.771,-10.771 c -1.517,-5.446 -3.295,-10.968 -5.307,-16.478 l -0.16,0.16 c -1.407,1.406 -3.314,2.196 -5.304,2.196 -1.989,0 -3.896,-0.79 -5.304,-2.197 l -19.588,-19.589 -19.589,19.59 c -1.465,1.464 -3.385,2.196 -5.304,2.196 -1.919,0 -3.839,-0.732 -5.304,-2.196 l -19.589,-19.59 -19.589,19.59 c -2.93,2.928 -7.678,2.928 -10.607,0 l -19.589,-19.59 -19.588,19.589 c -1.407,1.407 -3.314,2.197 -5.304,2.197 -1.837,0 -3.599,-0.681 -4.967,-1.891 -2.007,5.533 -3.774,11.074 -5.28,16.537 l 10.247,10.247 z"
   id="path2"
   style="fill:#d32f2f;fill-opacity:1;stroke-width:1.57975" />
	<path
   d="m 225.599,168.152 -9.446,9.446 c -1.407,1.406 -3.314,2.196 -5.304,2.196 -1.989,0 -3.896,-0.79 -5.304,-2.197 l -19.588,-19.589 -19.589,19.59 c -1.465,1.464 -3.385,2.196 -5.304,2.196 -1.919,0 -3.839,-0.732 -5.304,-2.196 l -19.589,-19.59 -19.589,19.59 c -2.93,2.928 -7.678,2.928 -10.607,0 l -19.589,-19.59 -19.588,19.589 c -1.407,1.407 -3.314,2.197 -5.304,2.197 -1.989,0 -3.897,-0.79 -5.304,-2.196 l -8.879,-8.879 c -1.408,7.942 -2.156,15.475 -2.156,22.271 h 182.697 c 0.002,-6.957 -0.78,-14.687 -2.253,-22.838 z"
   id="path3"
   style="fill:#d32f2f;fill-opacity:1;stroke-width:1.57975" />
	<path
   d="m 86.387,96.902 c 1.989,0 3.897,0.79 5.304,2.196 l 19.589,19.59 19.589,-19.59 c 2.93,-2.928 7.678,-2.928 10.607,0 l 19.589,19.59 19.589,-19.59 c 1.407,-1.406 3.315,-2.196 5.304,-2.196 1.989,0 3.896,0.79 5.304,2.197 l 17.807,17.808 C 196.297,89.35 177.905,64.604 156.724,54.49 163.323,48.805 167.507,40.394 167.507,31 c 0,-17.121 -13.879,-31 -31,-31 -17.121,0 -31,13.879 -31,31 0,9.393 4.183,17.804 10.782,23.488 C 95.426,64.45 77.268,88.606 64.522,115.662 L 81.085,99.099 c 1.405,-1.407 3.313,-2.197 5.302,-2.197 z"
   id="path4"
   style="fill:#d32f2f;fill-opacity:1;stroke-width:1.57975" />
</g></svg>
